# xmcd CD database file
#
# Track frame offsets:
#	150
#	20850
#	39937
#	65612
#	67080
#	85620
#	106957
#	119875
#	135782
#	155625
#
# Disc length: 2328 seconds
#
# Revision: 1
# Processed by: cddbd v1.5.2PL0 Copyright (c) Steve Scherf et al.
# Submitted via: CDex 1.60beta1
#
DISCID=8809160a
DTITLE=akiko - Words
DYEAR=2009
DGENRE=Jazz
TTITLE0=Poor Butterfly
TTITLE1=All of My World
TTITLE2=Norwegian Wood
TTITLE3=What is it
TTITLE4=It
TTITLE5=I miss You
TTITLE6=It;s only a Paper Moon
TTITLE7=Words
TTITLE8=Naima
TTITLE9=The Only Words
EXTD=YEAR: 2009
EXTT0=
EXTT1=
EXTT2=
EXTT3=
EXTT4=
EXTT5=
EXTT6=
EXTT7=
EXTT8=
EXTT9=
PLAYORDER=
